<svg width="80" height="91" viewBox="0 0 80 91" fill="none" xmlns="http://www.w3.org/2000/svg">
<path d="M38.4 0.484753C36.2814 0.863077 34.6546 1.54406 31.9685 3.24653C30.4173 4.23017 23.6831 8.39174 17.0246 12.5155C10.3661 16.6014 4.38857 20.4603 3.74542 21.1035C3.06443 21.7088 2.04296 23.1086 1.47547 24.1679C0.529657 25.9082 0.378327 26.5892 0.264829 30.1833C0.189164 32.4532 0.226997 34.2692 0.340494 34.2692C0.491824 34.2692 7.37734 29.7293 15.6248 24.2057L30.6065 14.1801L34.2384 14.5963C36.2057 14.8233 39.2323 15.1259 40.8969 15.2394L43.9614 15.4664L47.7068 10.8509C49.7876 8.31608 51.4522 6.04613 51.4522 5.81913C51.4522 5.36514 46.3826 2.11155 44.264 1.16574C42.9399 0.59825 39.7619 0.219925 38.4 0.484753Z" fill="#FF5F00"/>
<path d="M52.5115 8.84576C46.8745 16.1096 45.1342 18.0012 44.1505 18.0012C43.583 18.0012 40.4808 17.7364 37.2272 17.3581L31.3631 16.7149L15.7761 27.081L0.189162 37.4471V40.7764C0.189162 42.5923 0.264827 44.1056 0.378325 44.1056C0.45399 44.1056 3.21576 42.3653 6.50719 40.2089C26.8989 26.854 25.0073 27.989 25.7639 28.6322C26.0666 28.8592 26.2936 29.3131 26.2936 29.6158C26.2936 30.0698 17.7434 35.8582 3.78325 44.9001L0 47.3592L0.113497 50.802L0.226995 54.2448L2.95093 52.4288C7.37734 49.5157 15.7005 44.1056 18.2731 42.5167C19.5594 41.7222 22.2833 39.9819 24.3263 38.6578C32.0063 33.6639 39.5349 28.9726 39.9133 28.9726C40.2916 28.9726 54.4031 37.8255 60.4185 41.9114C62.2344 43.122 63.8234 44.1056 63.9747 44.1056C64.5801 44.1056 68.666 41.306 68.4011 41.079C68.2498 40.9277 64.8071 38.5443 60.7968 35.7825C56.8244 33.0586 53.4573 30.6373 53.3438 30.4481C53.079 30.032 53.7978 28.5943 54.2518 28.5943C54.5923 28.5943 69.12 38.4686 70.2171 39.4144C70.7468 39.8684 71.1251 39.7549 73.3194 38.3173L75.8541 36.6526L71.0116 33.2856C68.3633 31.4318 64.5422 28.7835 62.5371 27.4594C59.0187 25.1137 58.1107 24.1301 58.6404 23.2978C59.2835 22.2763 60.3428 22.9194 74.9462 32.9451C79.3726 35.9717 79.6374 35.8582 79.6374 30.9399C79.6374 28.3673 79.4482 26.9297 78.8429 25.4164C77.4431 21.6331 76.4216 20.8387 60.7211 11.1914C57.9215 9.45109 55.2354 7.82429 54.7814 7.52163C54.0248 7.02981 53.8735 7.10547 52.5115 8.84576Z" fill="#FF5F00"/>
<path d="M73.6977 40.8142C67.6066 44.7488 53.306 53.9043 45.4746 58.936C42.5994 60.752 40.1024 62.2653 39.9133 62.2653C39.5728 62.2653 26.1044 53.7151 20.1269 49.7049C18.3109 48.4942 16.6084 47.3971 16.3058 47.2836C15.8896 47.1323 11.1606 49.5914 11.1606 49.9697C11.1606 50.0454 14.452 52.3531 18.4622 55.0771C22.4346 57.8389 25.9152 60.3358 26.1801 60.6385C26.4071 60.9411 26.5206 61.4329 26.4071 61.7356C25.9152 63.0219 24.9316 62.4544 11.8794 53.3368L9.00412 51.3317L6.46934 53.0341L3.89673 54.7744L7.64215 57.3092C9.6851 58.7468 13.4683 61.3573 16.0788 63.0976C19.2567 65.2919 20.8457 66.616 20.9213 67.1456C21.1862 68.7724 19.8999 68.4698 16.3436 66.0485C1.96728 56.2877 1.77811 56.1742 0.9458 56.666C0.18915 57.12 0.151317 57.4227 0.264815 61.1303C0.378312 65.5945 1.09713 67.5618 3.32925 69.8696C4.04806 70.5884 9.30678 74.1068 15.0951 77.7009C24.5911 83.6406 25.6882 84.2081 26.2557 83.6784C26.5962 83.3758 28.6392 80.9167 30.8335 78.1927C35.4112 72.5179 34.1627 72.934 42.8642 73.9177L48.6904 74.5986L64.0125 64.3082C72.4114 58.6333 79.4104 53.9043 79.5239 53.8286C79.7887 53.5259 80.1292 46.7539 79.8644 46.7539C79.713 46.7539 77.1026 48.4186 74.0382 50.4615C59.2835 60.3358 54.6679 63.1354 54.1004 62.6436C53.7978 62.3788 53.5329 61.9248 53.5329 61.6599C53.5329 61.3573 55.2732 59.9953 57.4297 58.5955C59.5483 57.1957 65.4502 53.3368 70.5576 49.9697L79.8644 43.8787L79.9779 40.5872C80.0535 38.0525 79.94 37.2958 79.5617 37.3336C79.2969 37.3336 76.6486 38.8848 73.6977 40.8142Z" fill="#0063AC"/>
<path d="M71.3142 62.1517C66.85 65.1783 60.0402 69.7561 56.1812 72.3287L49.2201 77.0577L42.5994 76.2632C38.9675 75.8471 35.8652 75.6579 35.7139 75.8093C35.2221 76.3767 29.0932 83.9432 28.4879 84.7756C27.8069 85.6079 27.8069 85.6079 31.401 87.8022C36.8488 91.0936 39.6485 91.6611 43.5452 90.3369C44.6423 89.9586 48.1986 87.9535 51.49 85.9105C54.8193 83.8297 61.44 79.706 66.2069 76.7551C78.6159 69.0372 79.7887 67.5239 79.5617 60.0709L79.4482 56.7039L71.3142 62.1517Z" fill="#0063AC"/>
</svg>
