<svg width="300" height="58" viewBox="0 0 300 58" fill="none" xmlns="http://www.w3.org/2000/svg">
<path d="M24.4904 0.0549628C23.1392 0.296248 22.1017 0.730562 20.3886 1.81634C19.3993 2.44369 15.1044 5.09782 10.8578 7.72783C6.61121 10.3337 2.79891 12.7948 2.38873 13.205C1.95441 13.5911 1.30294 14.4838 0.941017 15.1594C0.337804 16.2693 0.24129 16.7036 0.168905 18.9958C0.120648 20.4435 0.144776 21.6017 0.217162 21.6017C0.313676 21.6017 4.70506 18.7063 9.96508 15.1835L19.52 8.78948L21.8363 9.05489C23.091 9.19967 25.0213 9.39269 26.0829 9.46508L28.0373 9.60985L30.426 6.66617C31.7531 5.04956 32.8148 3.60185 32.8148 3.45708C32.8148 3.16754 29.5815 1.09249 28.2303 0.489276C27.3859 0.127349 25.3591 -0.113937 24.4904 0.0549628Z" fill="#FF5F00"/>
<path d="M33.4904 5.38737C29.8952 10.02 28.7853 11.2265 28.158 11.2265C27.796 11.2265 25.8175 11.0576 23.7424 10.8163L20.0025 10.4061L10.0616 17.0173L0.120642 23.6285V25.7518C0.120642 26.91 0.168899 27.8751 0.241285 27.8751C0.289542 27.8751 2.05092 26.7652 4.1501 25.3899C17.1554 16.8725 15.9489 17.5964 16.4315 18.0066C16.6245 18.1513 16.7693 18.4409 16.7693 18.6339C16.7693 18.9235 11.3163 22.6151 2.41285 28.3818L0 29.9502L0.0723855 32.1459L0.144771 34.3416L1.88202 33.1834C4.70506 31.3255 10.0133 27.8751 11.6541 26.8617C12.4744 26.355 14.2117 25.2451 15.5146 24.4006C20.4127 21.2157 25.2143 18.2237 25.4556 18.2237C25.6968 18.2237 34.6968 23.8698 38.5332 26.4757C39.6914 27.2478 40.7048 27.8751 40.8013 27.8751C41.1873 27.8751 43.7932 26.0896 43.6243 25.9449C43.5278 25.8483 41.3321 24.3282 38.7745 22.5669C36.241 20.8296 34.0936 19.2854 34.0212 19.1647C33.8523 18.8993 34.3107 17.9825 34.6003 17.9825C34.8174 17.9825 44.0828 24.28 44.7825 24.8832C45.1203 25.1727 45.3616 25.1004 46.761 24.1835L48.3776 23.1218L45.2892 20.9744C43.6002 19.7921 41.1632 18.1031 39.8844 17.2586C37.6405 15.7626 37.0614 15.1353 37.3992 14.6045C37.8094 13.953 38.485 14.3632 47.7986 20.7572C50.6216 22.6875 50.7905 22.6151 50.7905 19.4784C50.7905 17.8377 50.6698 16.9208 50.2838 15.9557C49.391 13.5428 48.7396 13.0361 38.7262 6.88334C36.9407 5.77343 35.2276 4.73591 34.9381 4.54288C34.4555 4.22921 34.359 4.27746 33.4904 5.38737Z" fill="#FF5F00"/>
<path d="M47.0021 25.776C43.1175 28.2853 33.9969 34.1244 29.0023 37.3335C27.1685 38.4917 25.576 39.4568 25.4554 39.4568C25.2382 39.4568 16.6485 34.0038 12.8362 31.4462C11.678 30.6741 10.5922 29.9743 10.3992 29.902C10.1338 29.8054 7.11774 31.3738 7.11774 31.6151C7.11774 31.6633 9.21692 33.1352 11.7745 34.8724C14.308 36.6338 16.5279 38.2263 16.6967 38.4193C16.8415 38.6123 16.9139 38.926 16.8415 39.119C16.5279 39.9394 15.9005 39.5775 7.57618 33.7625L5.74241 32.4837L4.1258 33.5695L2.48507 34.6794L4.87379 36.296C6.17673 37.2129 8.58957 38.8778 10.2544 39.9877C12.2812 41.3871 13.2946 42.2316 13.3429 42.5694C13.5118 43.6069 12.6914 43.4139 10.4233 41.8697C1.25451 35.6445 1.13387 35.5721 0.603043 35.8858C0.120473 36.1754 0.0963448 36.3684 0.16873 38.733C0.241116 41.5801 0.699557 42.8348 2.12314 44.3067C2.58158 44.7651 5.93544 47.0091 9.6271 49.3013C15.6834 53.0894 16.3831 53.4514 16.745 53.1136C16.9622 52.9205 18.2651 51.3522 19.6646 49.6149C22.5841 45.9957 21.7879 46.2611 27.3374 46.8884L31.0532 47.3227L40.8252 40.7598C46.1818 37.1405 50.6455 34.1244 50.7179 34.0762C50.8868 33.8832 51.104 29.5642 50.9351 29.5642C50.8386 29.5642 49.1737 30.6258 47.2193 31.9287C37.8092 38.2263 34.8655 40.0118 34.5036 39.6981C34.3106 39.5292 34.1417 39.2397 34.1417 39.0708C34.1417 38.8778 35.2516 38.0091 36.6269 37.1164C37.9781 36.2236 41.7421 33.7625 44.9995 31.6151L50.9351 27.7304L51.0075 25.6312C51.0557 24.0146 50.9833 23.532 50.7421 23.5562C50.5732 23.5562 48.8842 24.5454 47.0021 25.776Z" fill="#0063AC"/>
<path d="M45.4823 39.3844C42.6351 41.3147 38.292 44.2343 35.8309 45.875L31.3912 48.8911L27.1687 48.3844C24.8524 48.1189 22.8739 47.9983 22.7773 48.0948C22.4637 48.4567 18.5549 53.2824 18.1688 53.8133C17.7345 54.3441 17.7345 54.3441 20.0267 55.7436C23.5012 57.8427 25.2867 58.2047 27.7719 57.3602C28.4717 57.1189 30.7397 55.8401 32.8389 54.5371C34.9622 53.2101 39.1847 50.5801 42.2249 48.698C50.1391 43.7758 50.887 42.8107 50.7423 38.0574L50.6699 35.9099L45.4823 39.3844Z" fill="#0063AC"/>
<path d="M60.8223 14.0991H84.9294V20.3281H76.4353V43.2217H69.2759V20.3281H60.8223V14.0991Z" fill="#0063AC"/>
<path d="M88.7249 43.2217V14.0991H95.9246V43.2217H88.7249ZM92.6079 43.2217V36.9927H108.464V43.2217H92.6079ZM92.6079 31.5727V25.6672H106.037V31.5727H92.6079ZM92.6079 20.3281V14.0991H108.1V20.3281H92.6079Z" fill="#0063AC"/>
<path d="M122.591 33.2715H117.414V27.1234H122.187C123.508 27.1234 124.519 26.8537 125.22 26.3144C125.949 25.7751 126.474 24.9931 126.798 23.9684L130.276 14.0991H137.395V14.544L133.189 25.7886C132.703 27.1908 131.962 28.4582 130.964 29.5907C129.966 30.7233 128.766 31.6266 127.364 32.3007C125.962 32.9479 124.371 33.2715 122.591 33.2715ZM113.571 43.2217V14.0991H120.731V43.2217H113.571ZM129.387 29.5503L137.881 42.7768V43.2217H130.196L123.603 32.1389L129.387 29.5503Z" fill="#0063AC"/>
<path d="M141.932 43.2217V14.0991H147.675L162.115 28.7008V38.1253L147.068 22.9168L149.131 22.0674V43.2217H141.932ZM159.729 43.2217V14.0991H166.888V43.2217H159.729Z" fill="#0063AC"/>
<path d="M171.682 28.6604C171.682 25.6942 172.262 23.0786 173.422 20.8135C174.581 18.5484 176.267 16.7821 178.478 15.5147C180.689 14.2474 183.372 13.6137 186.527 13.6137C189.655 13.6137 192.324 14.2474 194.536 15.5147C196.774 16.7821 198.473 18.5484 199.632 20.8135C200.792 23.0786 201.371 25.6942 201.371 28.6604C201.371 31.6266 200.792 34.2422 199.632 36.5073C198.473 38.7724 196.774 40.5387 194.536 41.8061C192.324 43.0734 189.655 43.7071 186.527 43.7071C183.372 43.7071 180.689 43.0869 178.478 41.8465C176.267 40.5791 174.581 38.8129 173.422 36.5478C172.262 34.2827 171.682 31.6536 171.682 28.6604ZM179.004 28.6604C179.004 30.4132 179.273 31.9772 179.813 33.3524C180.379 34.7007 181.215 35.7523 182.32 36.5073C183.453 37.2624 184.855 37.6399 186.527 37.6399C188.199 37.6399 189.587 37.2624 190.693 36.5073C191.799 35.7523 192.621 34.7007 193.16 33.3524C193.727 31.9772 194.01 30.4132 194.01 28.6604C194.01 26.9076 193.727 25.3571 193.16 24.0089C192.621 22.6336 191.799 21.5685 190.693 20.8135C189.587 20.0584 188.199 19.6809 186.527 19.6809C184.855 19.6809 183.453 20.0584 182.32 20.8135C181.215 21.5685 180.379 22.6336 179.813 24.0089C179.273 25.3571 179.004 26.9076 179.004 28.6604Z" fill="#0063AC"/>
<path d="M206.159 43.2217V14.0991H212.226L222.298 30.6424L219.345 30.6828L229.255 14.0991H235.322V43.2217H228.163V24.4133L229.619 24.8178L222.459 36.7096H219.021L211.862 24.9796L213.359 24.5751V43.2217H206.159Z" fill="#0063AC"/>
<path d="M241.472 14.0991H248.672V43.2217H241.472V14.0991Z" fill="#0063AC"/>
<path d="M254.014 35.7793H254.419C255.093 36.1298 255.902 36.4669 256.845 36.7905C257.789 37.1141 258.814 37.3837 259.919 37.5994C261.052 37.7882 262.185 37.8826 263.317 37.8826C264.504 37.8826 265.488 37.8017 266.27 37.6399C267.079 37.4781 267.685 37.2219 268.09 36.8714C268.521 36.4939 268.737 35.995 268.737 35.3748C268.737 34.5928 268.467 34.013 267.928 33.6355C267.416 33.258 266.486 32.9614 265.137 32.7457L262.468 32.3412C260.472 32.0446 258.773 31.5322 257.371 30.8042C255.996 30.0761 254.958 29.1188 254.257 27.9323C253.556 26.7189 253.205 25.2628 253.205 23.5639C253.205 21.4876 253.69 19.7079 254.661 18.2248C255.659 16.7417 257.169 15.6091 259.191 14.8271C261.214 14.0182 263.802 13.6137 266.957 13.6137C268.36 13.6137 269.708 13.735 271.002 13.9777C272.297 14.1934 273.375 14.4901 274.238 14.8676V20.9753H273.793C272.984 20.5977 271.946 20.2472 270.679 19.9236C269.411 19.6 267.996 19.4382 266.432 19.4382C265.083 19.4382 263.937 19.573 262.994 19.8427C262.077 20.1124 261.376 20.5303 260.89 21.0966C260.405 21.6359 260.162 22.3235 260.162 23.1595C260.162 24.2381 260.513 25.0066 261.214 25.465C261.915 25.9234 263.047 26.2874 264.611 26.5571L267.16 26.9616C268.751 27.2043 270.193 27.6357 271.488 28.2559C272.809 28.8761 273.847 29.739 274.602 30.8446C275.384 31.9502 275.775 33.4063 275.775 35.213C275.775 36.75 275.452 38.0713 274.804 39.1769C274.157 40.2555 273.254 41.1319 272.094 41.8061C270.962 42.4532 269.64 42.9251 268.13 43.2217C266.647 43.5453 265.043 43.7071 263.317 43.7071C262.104 43.7071 260.904 43.6262 259.717 43.4644C258.558 43.3296 257.479 43.1408 256.481 42.8982C255.484 42.6555 254.661 42.3993 254.014 42.1296V35.7793Z" fill="#0063AC"/>
<path d="M280.261 43.2217V14.0991H287.461V43.2217H280.261ZM284.144 43.2217V36.9927H300V43.2217H284.144ZM284.144 31.5727V25.6672H297.573V31.5727H284.144ZM284.144 20.3281V14.0991H299.636V20.3281H284.144Z" fill="#0063AC"/>
</svg>
